HIERARCHY
ROOT hip
{
	OFFSET 0.000000 0.000000 0.000000 
	CHANNELS 6 Xposition Yposition Zposition Xrotation Zrotation Yrotation
	JOINT abdomen
	{
		OFFSET 0.000000 3.402643 0.000000 
		CHANNELS 3 Xrotation Zrotation Yrotation
		JOINT chest
		{
			OFFSET 0.000000 8.438565 -0.680529 
			CHANNELS 3 Xrotation Zrotation Yrotation
			JOINT neck
			{
				OFFSET 0.000000 10.207942 -0.272212 
				CHANNELS 3 Xrotation Zrotation Yrotation
				JOINT head
				{
					OFFSET 0.000000 3.130431 0.000000 
					CHANNELS 3 Xrotation Zrotation Yrotation
					End Site
					{
						OFFSET 0.000000 3.130435 0.000000 
					}
				}
			}
			JOINT lCollar
			{
				OFFSET 3.470700 6.669187 -0.816635 
				CHANNELS 3 Yrotation Zrotation Xrotation
				JOINT lShldr
				{
					OFFSET 3.198488 0.000000 0.000000 
					CHANNELS 3 Zrotation Yrotation Xrotation
					JOINT lForeArm
					{
						OFFSET 10.139888 0.000000 0.000000 
						CHANNELS 3 Yrotation Zrotation Xrotation
						JOINT lHand
						{
							OFFSET 8.370511 0.000000 0.000000 
							CHANNELS 3 Zrotation Yrotation Xrotation
							End Site
							{
								OFFSET 4.083176 0.000000 0.000000 
							}
						}
					}
				}
			}
			JOINT rCollar
			{
				OFFSET -3.470700 6.669187 -0.816635 
				CHANNELS 3 Yrotation Zrotation Xrotation
				JOINT rShldr
				{
					OFFSET -3.198488 0.000000 0.000000 
					CHANNELS 3 Zrotation Yrotation Xrotation
					JOINT rForeArm
					{
						OFFSET -10.139888 0.000000 0.000000 
						CHANNELS 3 Yrotation Zrotation Xrotation
						JOINT rHand
						{
							OFFSET -8.370511 0.000000 0.000000 
							CHANNELS 3 Zrotation Yrotation Xrotation
							End Site
							{
								OFFSET -4.083176 0.000000 0.000000 
							}
						}
					}
				}
			}
		}
	}
	JOINT lThigh
	{
		OFFSET 5.308129 -1.633274 1.361059 
		CHANNELS 3 Xrotation Zrotation Yrotation
		JOINT lShin
		{
			OFFSET -2.041588 -20.007561 0.000000 
			CHANNELS 3 Xrotation Zrotation Yrotation
			JOINT lFoot
			{
				OFFSET 0.000000 -19.190928 -1.224953 
				CHANNELS 3 Xrotation Yrotation Zrotation
				End Site
				{
					OFFSET 0.000000 -2.449906 4.627600 
				}
			}
		}
	}
	JOINT rThigh
	{
		OFFSET -5.308129 -1.633274 1.361059 
		CHANNELS 3 Xrotation Zrotation Yrotation
		JOINT rShin
		{
			OFFSET 2.041588 -20.007561 0.000000 
			CHANNELS 3 Xrotation Zrotation Yrotation
			JOINT rFoot
			{
				OFFSET 0.000000 -19.190928 -1.224953 
				CHANNELS 3 Xrotation Yrotation Zrotation
				End Site
				{
					OFFSET 0.000000 -2.449906 4.627600 
				}
			}
		}
	}
}
MOTION
Frames: 8
Frame Time: 0.011111
2.632743 52.606228 -88.538261 -2.846075 -7.446480 1.072574 26.642292 5.058895 11.210846 -22.198013 2.927755 2.626241 -13.829649 -7.213954 -4.422001 26.196100 14.403502 -7.260003 9.553514 -10.448139 3.647584 -61.613750 10.091062 44.308720 -87.675499 3.587454 33.276417 8.524705 12.647240 -14.417370 -5.779580 5.050342 2.610686 59.058254 27.166283 41.764297 104.571556 -11.068526 42.576599 -8.534408 -12.637552 57.913918 -26.549921 11.336833 -6.522881 18.876816 -5.817102 -3.369382 5.409722 9.128509 -3.640149 20.710346 2.285628 5.144805 50.305817 3.726156 7.234068 1.168586 -17.014412 3.687113 
2.620162 52.414688 -86.877029 -3.329829 -7.576173 0.761051 27.309399 4.841633 11.082731 -21.836388 2.997855 2.612033 -14.969149 -7.039802 -4.298143 26.089386 14.095144 -7.255260 9.553514 -10.448139 3.647584 -62.271408 9.756228 43.354618 -88.003815 3.972958 33.608467 8.524705 12.647240 -13.977917 -5.779580 5.050342 2.610686 59.306847 27.544117 42.635765 104.348526 -11.036884 42.485535 -8.534408 -12.637552 56.546734 -26.058369 11.784798 -5.348886 18.756544 -5.806811 -3.376769 6.691993 7.729090 -3.594218 20.072243 2.256277 5.836914 53.925362 3.364025 7.607993 0.243401 -17.563772 3.515567 
2.613557 52.178177 -85.244736 -3.800903 -7.361616 0.565747 28.181780 4.229758 10.766812 -21.680424 2.901511 2.584253 -16.730227 -6.744256 -4.148060 26.836508 13.918269 -7.122942 9.553514 -10.448139 3.647584 -62.426113 8.810698 42.811821 -88.275970 4.267064 33.856972 8.524705 12.647240 -13.499402 -5.779580 5.050342 2.610686 59.972694 27.947844 43.156231 104.004181 -10.992309 42.315529 -8.534408 -12.637552 56.361191 -25.773224 11.754896 -4.525375 19.638071 -5.791362 -3.473193 7.515701 6.041004 -3.390960 19.030813 1.807060 5.928675 57.648102 2.981035 7.911994 -0.452982 -17.544949 3.329381 
2.587768 51.981300 -83.610245 -4.367758 -6.913653 0.526464 28.578230 3.331658 10.217468 -22.090742 2.928031 2.523985 -16.023415 -6.138643 -4.330491 26.191833 13.670193 -7.323220 9.553514 -10.448139 3.647584 -61.781567 8.792947 42.887428 -88.615746 4.612235 34.146069 8.524705 12.647240 -12.884169 -5.779580 5.050342 2.610686 60.807671 27.030359 43.387619 103.770340 -10.956990 42.213959 -8.534408 -12.637552 57.367046 -25.157848 11.451642 -3.266513 20.942139 -5.728279 -3.668591 8.688663 3.881913 -3.130488 17.789532 1.103819 5.610157 61.226479 2.580104 8.230373 -1.443398 -17.491285 3.082561 
2.533044 51.653584 -82.015694 -5.004744 -6.679828 0.739910 28.419285 2.723680 9.734056 -23.175406 2.894270 2.424215 -12.238359 -5.372360 -4.774962 23.460741 13.556220 -7.776229 9.553514 -10.448139 3.647584 -60.273113 9.874640 43.694630 -89.022484 4.993829 34.457047 8.524705 12.647240 -12.093154 -5.779580 5.050342 2.610686 61.761616 24.245893 43.936169 104.250832 -11.025050 42.427238 -8.534408 -12.637552 57.503765 -24.679077 11.295152 -2.194210 22.851006 -5.670429 -3.936804 9.036947 1.746331 -2.837767 16.988079 0.556972 4.644266 64.673180 2.169508 8.509400 -2.679741 -16.905777 2.763607 
2.508826 51.235912 -80.435295 -5.623355 -6.604411 0.795069 29.200384 2.287069 9.625960 -23.127029 2.658258 2.440833 -12.724116 -5.149054 -4.839506 23.261438 13.672230 -7.935071 9.553514 -10.448139 3.647584 -59.266090 8.372300 44.544724 -89.268478 5.209566 34.644543 8.524705 12.647240 -11.390028 -5.779580 5.050342 2.610686 62.771568 23.590086 43.679497 103.395515 -10.902033 42.029476 -8.534408 -12.637552 56.097515 -24.497725 11.267489 -1.764784 25.480654 -5.551984 -4.276958 7.020556 0.549437 -2.809793 15.745575 0.010534 3.712237 68.174690 1.739931 8.755663 -3.882431 -16.401844 2.458120 
2.529584 50.900017 -78.852997 -6.227736 -6.179834 0.623163 30.092810 2.264278 8.247521 -23.038492 3.433197 2.046813 -13.378493 -6.351034 -3.978402 23.751991 13.811019 -6.478713 9.553514 -10.448139 3.647584 -61.336670 7.353715 43.195370 -89.509750 5.413447 34.812275 8.524705 12.647240 -10.843152 -5.779580 5.050342 2.610686 62.132065 23.206762 45.697197 102.428040 -10.740286 41.582748 -8.534408 -12.637552 55.628765 -24.134689 10.847010 -1.300955 28.693304 -5.400782 -4.696295 3.539605 -1.201022 -2.901188 14.042985 -1.093367 2.874911 71.545555 1.319524 8.981226 -4.780788 -16.047810 2.232267 
2.554116 50.583626 -77.294937 -6.917025 -5.524312 0.521279 30.994125 1.675346 7.249074 -23.185080 3.875384 1.825242 -13.573474 -6.788889 -3.502026 23.907829 13.731904 -5.659080 9.553514 -10.448139 3.647584 -61.804020 5.953323 43.165066 -89.696724 5.566524 34.931873 8.524705 12.647240 -10.208386 -5.779580 5.050342 2.610686 62.257214 22.250307 46.613815 101.642609 -10.595098 41.204395 -8.534408 -12.637552 54.798687 -23.511435 10.105691 -1.031107 32.230827 -5.186614 -5.151307 0.166702 -2.468766 -3.144546 12.320804 -2.537444 1.795306 74.718491 0.879949 9.161468 -5.810516 -15.405198 2.005383 
